PathFileType	4	(X/Y/Z)	C:\Users\Basilio\Documents\Thesis Gigler\squatting_fais\c3dfiles\076\SLS_front_pre4\markers_experimental.trc
DataRate	CameraRate	NumFrames	NumMarkers	Units	OrigDataRate	OrigDataStartFrame	OrigNumFrames
200.000000	200.000000	4	61	mm	200.000000	202	1621
Frame#	Time	FHD			LBHD			RBHD			C7			T10			CLAV			LSHO			LUUPA			LMUPA			LDUPA			LLEP			LMEP			LRAD			LUL			LRFIN			RSHO			RUPA1			RMUPA			RDUPA			RLEP			RMEP			RRAD			RUL			RUFIN			RASI			USACR			LSACR			RSACR			LTHI1			LTHI2			LTHI3			LTHI4			LLFC			LMFC			LTIB1			LTIB2			LTIB3			LTIB4			LLMAL			LMMAL			LHEE			LMT1			LMT2			LMT5			RTHI			RTHI2			RTHI3			RTHI4			RLFC			RMFC			RTIB1			RTIB2			RTIB3			RTIB4			RLMAL			RMMAL			RHEE			RMT1			RMT2			RMT5			LASI			
		X1	Y1	Z1	X2	Y2	Z2	X3	Y3	Z3	X4	Y4	Z4	X5	Y5	Z5	X6	Y6	Z6	X7	Y7	Z7	X8	Y8	Z8	X9	Y9	Z9	X10	Y10	Z10	X11	Y11	Z11	X12	Y12	Z12	X13	Y13	Z13	X14	Y14	Z14	X15	Y15	Z15	X16	Y16	Z16	X17	Y17	Z17	X18	Y18	Z18	X19	Y19	Z19	X20	Y20	Z20	X21	Y21	Z21	X22	Y22	Z22	X23	Y23	Z23	X24	Y24	Z24	X25	Y25	Z25	X26	Y26	Z26	X27	Y27	Z27	X28	Y28	Z28	X29	Y29	Z29	X30	Y30	Z30	X31	Y31	Z31	X32	Y32	Z32	X33	Y33	Z33	X34	Y34	Z34	X35	Y35	Z35	X36	Y36	Z36	X37	Y37	Z37	X38	Y38	Z38	X39	Y39	Z39	X40	Y40	Z40	X41	Y41	Z41	X42	Y42	Z42	X43	Y43	Z43	X44	Y44	Z44	X45	Y45	Z45	X46	Y46	Z46	X47	Y47	Z47	X48	Y48	Z48	X49	Y49	Z49	X50	Y50	Z50	X51	Y51	Z51	X52	Y52	Z52	X53	Y53	Z53	X54	Y54	Z54	X55	Y55	Z55	X56	Y56	Z56	X57	Y57	Z57	X58	Y58	Z58	X59	Y59	Z59	X60	Y60	Z60	X61	Y61	Z61	

203	1.01	-194.242172241211	1645.1474609375	-894.7221679687502	-323.3432617187501	1571.760375976563	-1001.51953125	-325.2149963378907	1582.692260742188	-849.953552246094	-375.4462280273438	1453.355346679688	-913.3725585937502	-394.4282836914064	1132.86181640625	-927.2647705078127	-240.8282928466797	1378.20947265625	-919.7730712890627	-324.4313049316407	1409.188720703125	-1087.853271484375	-345.2631835937501	1263.332153320313	-1220.349731445313	-325.5625610351563	1219.029541015625	-1206.637939453125	-353.9147338867188	1206.759643554688	-1259.618896484375	-365.8965759277344	1158.323608398438	-1287.94189453125	-442.5235290527345	1141.563842773438	-1245.452026367188	-332.8100280761719	996.072448730469	-1113.008178710938	-291.4319458007813	965.5403442382815	-1151.4228515625	-284.1416320800782	1018.490966796875	-1094.948608398438	-311.9139404296876	1398.947509765625	-752.3532104492189	-368.9138488769532	1265.526489257813	-619.0115966796876	-336.3762207031251	1227.33984375	-615.7794799804689	-380.2417297363282	1207.79638671875	-578.9248046875001	-374.3396911621094	1137.828979492188	-556.0563964843751	-442.8853454589845	1122.7548828125	-612.1338500976564	-333.3008728027344	992.3172607421877	-744.5778198242189	-279.3320007324219	1013.302001953125	-751.9479980468751	-289.8038635253907	961.5187988281252	-703.0393066406251	-224.8597717285157	949.253356933594	-824.3714599609377	-395.4730834960939	1028.257690429688	-922.1849365234377	-404.1864318847657	999.0489501953127	-949.5471801757815	-400.6256408691407	998.3015136718752	-893.4700317382815	-328.4149780273438	800.0215454101565	-1099.787841796875	-308.6134033203126	717.8444824218751	-1100.283325195313	-259.7093505859376	714.7299804687501	-1089.7861328125	-343.4929199218751	669.1400756835939	-1087.817993164063	-359.0195922851563	508.9033508300782	-1065.28466796875	-319.8926391601563	496.7237548828126	-952.883728027344	-323.4719543457032	363.2921752929688	-1007.34619140625	-349.9010314941407	313.8630371093751	-1075.70703125	-319.2201538085938	315.6913452148438	-1041.442749023438	-328.6063232421876	236.3719329833985	-1012.505920410156	-384.9756164550782	109.8136901855469	-1069.130004882813	-355.4837341308594	120.6720046997071	-990.2464599609377	-441.8477172851564	96.71629333496097	-1024.030151367188	-239.5442962646485	54.43277740478517	-1006.574951171875	-233.6812896728516	49.8502655029297	-1044.917602539063	-256.6484680175782	42.73156738281251	-1095.116943359375	-337.1296997070313	711.2488403320314	-751.2236938476564	-304.8033142089844	652.2282714843751	-746.7071533203126	-270.5834350585938	652.2238769531251	-752.9774169921876	-337.0802612304688	577.1177978515626	-759.9328613281251	-345.3066101074219	516.5488281250001	-763.6770019531251	-309.0116882324219	502.3103942871095	-876.9995727539065	-309.9491271972657	382.9357604980469	-773.797546386719	-382.1024780273438	305.1596679687501	-750.9488525390626	-335.4714965820313	301.0693054199219	-756.0647583007814	-319.8245849609376	253.3840026855469	-786.1827392578127	-382.3768310546876	116.6886825561524	-752.6683959960939	-358.0719909667969	125.4868469238282	-834.1641235351565	-439.3473205566407	102.3083572387696	-793.401550292969	-243.4394683837891	51.84329223632814	-819.7749633789065	-235.7481842041016	51.98708724975587	-774.3060302734377	-263.7209777832032	36.63213348388673	-719.7101440429689	-235.3741912841797	947.6966552734377	-1038.767456054688	
204	1.015	-193.8950195312501	1644.9970703125	-895.0776977539065	-323.9589538574219	1572.041381835938	-1001.385009765625	-324.9194335937501	1582.752319335938	-849.7303466796877	-375.5406494140626	1453.368041992188	-913.3882446289065	-394.6219482421876	1132.814086914063	-927.282165527344	-240.8507385253907	1378.220947265625	-919.7977294921877	-324.4484863281251	1408.992309570313	-1087.770263671875	-345.4028625488282	1263.476928710938	-1220.236083984375	-326.1432800292969	1219.319580078125	-1206.771240234375	-354.0641784667969	1206.913696289063	-1259.598510742188	-366.2726440429688	1158.527954101563	-1288.07275390625	-442.7103271484376	1141.686645507813	-1245.425537109375	-332.9869995117188	996.1206054687502	-1113.180297851563	-291.2175598144532	965.8208618164065	-1151.635498046875	-284.2551269531251	1018.666259765625	-1094.9443359375	-311.9669799804688	1398.837158203125	-752.3423461914064	-368.9678955078126	1265.7412109375	-619.0349121093751	-336.4845275878907	1227.505981445313	-615.7850952148439	-380.3581848144532	1207.973999023438	-578.9027709960939	-374.5328063964844	1138.0615234375	-556.0793457031251	-443.062469482422	1122.858764648438	-612.1230468750001	-333.3711853027344	992.369079589844	-744.4533081054689	-279.4335937500001	1013.50048828125	-752.0156860351564	-289.7371520996094	961.772399902344	-702.8781127929689	-224.8031921386719	949.234558105469	-824.270690917969	-395.5636596679689	1028.261840820313	-922.2231445312502	-404.2454528808595	999.0148925781252	-949.5820922851565	-400.8228454589845	998.2795410156252	-893.4400024414065	-328.5775146484376	800.0609130859377	-1099.904663085938	-308.5344848632813	717.7901000976564	-1100.294677734375	-259.6616516113282	714.7028808593751	-1089.760864257813	-343.3734436035157	669.0861206054689	-1087.778198242188	-358.8081054687501	508.8519897460939	-1065.30224609375	-319.7378540039063	496.9476928710939	-953.1230468750002	-323.4625854492188	363.3228759765626	-1007.285766601563	-349.7474975585938	313.7896118164063	-1075.698486328125	-319.1614074707032	315.6933593750001	-1041.419921875	-328.6064453125001	236.4152069091797	-1012.448608398438	-384.980438232422	109.8217086791992	-1069.110473632813	-355.4853210449219	120.6604537963867	-990.1956176757815	-441.858612060547	96.71632385253909	-1024.011474609375	-238.8632812500001	55.07268142700197	-1006.271484375	-233.7178497314454	49.88613510131837	-1044.925415039063	-257.4334716796876	43.07429504394532	-1095.373657226563	-337.2254943847657	711.2520141601564	-751.2661743164064	-304.9010925292969	652.2288208007814	-746.7302246093751	-270.7023925781251	652.2436523437501	-752.9533691406251	-337.1231689453126	577.1155395507814	-759.9265136718751	-345.3219909667969	516.5706787109376	-763.6605224609376	-308.4795227050782	502.2439575195314	-876.8173828125002	-310.0253295898438	382.9255981445313	-773.7706298828127	-382.1234130859376	305.1336669921876	-750.9257202148439	-335.5414733886719	301.0609741210938	-756.0177612304689	-319.8416442871094	253.327621459961	-786.1152954101565	-382.3659057617188	116.6472778320313	-752.6853027343751	-358.1021423339844	125.5024795532227	-834.1652832031252	-439.3343505859376	102.2803726196289	-793.370300292969	-243.4293365478516	51.83971405029298	-819.7731933593752	-235.7420654296876	51.97264099121095	-774.278991699219	-263.7938537597657	36.48966217041016	-719.7451782226564	-235.4564819335938	947.794616699219	-1038.83251953125	
205	1.02	-193.6623229980469	1644.800415039063	-895.4317626953127	-324.2111511230469	1571.935791015625	-1001.179016113281	-324.4738464355469	1582.74560546875	-849.4997558593752	-375.6480712890626	1453.338134765625	-913.3992919921877	-394.6947021484376	1132.779296875	-927.3074951171877	-240.8641510009766	1378.19580078125	-919.8378906250002	-324.3627929687501	1408.309204101563	-1087.479125976563	-345.5359497070313	1263.658203125	-1220.1884765625	-326.2884216308594	1219.459716796875	-1206.73095703125	-354.2467041015626	1207.170043945313	-1259.553100585938	-366.4498596191407	1158.7412109375	-1288.057861328125	-442.8522338867189	1141.871337890625	-1245.431518554688	-332.8154907226563	996.2857666015627	-1113.386352539063	-291.0374450683594	966.1003417968752	-1151.940307617188	-284.2635192871094	1018.856384277344	-1094.975830078125	-311.9427185058594	1398.730834960938	-752.3682861328126	-369.1765441894532	1265.855590820313	-619.0596313476564	-336.6624450683594	1227.621704101563	-615.7711181640626	-380.5416870117188	1208.166625976563	-578.9250488281251	-374.7059936523438	1138.398681640625	-556.0667724609376	-443.295135498047	1123.087646484375	-611.9780273437501	-333.4270324707032	992.5091552734377	-744.2516479492189	-279.5316772460938	1013.73779296875	-751.9773559570314	-289.7086791992188	961.9932250976565	-702.8023681640626	-225.1867828369141	949.389587402344	-824.4043579101565	-395.7325439453126	1028.147827148438	-922.2800292968752	-404.3777770996095	998.9672851562502	-949.6097412109377	-400.9184875488282	998.1855468750002	-893.5335693359377	-328.4978942871094	799.9968261718752	-1099.902221679688	-308.5344848632813	717.8105468750001	-1100.299194335938	-259.7112426757813	714.7356567382814	-1089.7568359375	-343.2918395996094	669.0920410156251	-1087.809692382813	-358.8054199218751	508.8425292968751	-1065.2939453125	-319.8502197265626	496.8205566406251	-953.001159667969	-323.4089050292969	363.2823181152344	-1007.20166015625	-349.5445251464844	313.7454833984376	-1075.7177734375	-319.0890502929688	315.6763610839844	-1041.317749023438	-328.5571289062501	236.401840209961	-1012.397705078125	-384.840301513672	109.7902221679688	-1069.034790039063	-355.5015563964844	120.6501007080078	-990.123474121094	-441.8255615234376	96.69751739501956	-1024.014892578125	-239.5194091796876	54.36227798461915	-1006.455749511719	-233.7287902832032	49.90748977661134	-1044.823120117188	-257.4019775390626	43.05791473388673	-1095.370971679688	-337.2972412109376	711.2791748046876	-751.2579956054689	-304.9932556152344	652.2625732421876	-746.7104492187501	-270.7815551757813	652.2369384765626	-752.8692626953126	-337.1910705566407	577.1272583007814	-759.9082641601564	-345.3789367675782	516.5416870117189	-763.6569213867189	-309.0210876464844	502.3057250976564	-876.9234008789065	-310.0145874023438	382.9676208496094	-773.7713012695315	-382.1289672851563	305.0858764648438	-750.9220581054689	-335.5436706542969	301.0223083496094	-756.0005493164064	-319.8554687500001	253.3171539306641	-786.1240234375002	-382.3640136718751	116.7157287597657	-752.6528930664064	-358.0948791503907	125.4425125122071	-834.1484985351565	-439.3746337890626	102.3025360107422	-793.3552856445315	-243.4282989501954	51.8524627685547	-819.7736816406252	-235.7449035644532	51.9792938232422	-774.2822265625002	-263.7309875488282	36.58931732177735	-719.7224121093751	-235.5341491699219	947.7874755859377	-1038.8095703125	
206	1.025	-193.5552215576172	1644.768920898438	-895.776306152344	-324.5484619140626	1572.167236328125	-1000.796081542969	-324.1557922363282	1582.80029296875	-849.295593261719	-375.7414245605469	1453.335205078125	-913.4392089843752	-394.842254638672	1132.844116210938	-927.311218261719	-240.841049194336	1378.227783203125	-919.9135742187502	-323.8363342285157	1407.95458984375	-1087.308959960938	-345.6846313476563	1263.839111328125	-1220.071655273438	-326.2111206054688	1219.560913085938	-1206.619506835938	-354.3721618652344	1207.418579101563	-1259.510131835938	-366.8276367187501	1158.98095703125	-1288.148193359375	-443.1030273437501	1142.030639648438	-1245.360595703125	-332.6544189453126	996.4816894531252	-1113.647338867188	-290.8464965820313	966.5197753906252	-1152.240234375	-284.2607421875001	1019.071838378906	-1094.984619140625	-311.9412231445313	1398.625854492188	-752.3569946289064	-369.3189697265626	1266.036865234375	-619.1265258789064	-336.8268737792969	1227.75634765625	-615.7875976562501	-380.7996215820313	1208.417236328125	-578.9280395507814	-374.9953613281251	1138.668701171875	-555.8947753906251	-443.488739013672	1123.237426757813	-612.0048828125001	-333.3753967285157	992.7532348632815	-744.0109863281251	-279.6160583496094	1013.975891113281	-751.9545898437501	-289.5621032714844	962.3031005859377	-702.5470581054689	-225.3026428222657	949.4700317382815	-824.4194946289065	-395.8492431640626	1028.044677734375	-922.3501586914065	-404.474090576172	998.9736938476565	-949.6401977539065	-401.0556945800782	998.1716918945315	-893.506530761719	-328.4249877929688	799.9229125976565	-1099.878295898438	-308.4692077636719	717.7826538085939	-1100.296020507813	-259.6842651367188	714.7725219726564	-1089.664184570313	-343.2001342773438	669.0264892578126	-1087.829223632813	-358.7269592285157	508.8706359863282	-1065.343994140625	-319.7661132812501	496.912322998047	-953.0484619140627	-323.4230041503907	363.3060913085938	-1007.208923339844	-349.4847106933594	313.6595153808594	-1075.698852539063	-319.0469360351563	315.6302490234376	-1041.240112304688	-328.5729980468751	236.3259735107422	-1012.279113769531	-384.7731933593751	109.7747116088867	-1069.00048828125	-355.5562744140626	120.6467742919922	-990.0386352539065	-442.186737060547	96.87093353271487	-1024.091552734375	-239.5165405273438	54.3590545654297	-1006.468505859375	-233.6554718017579	49.80347061157228	-1044.77978515625	-256.7547302246094	42.84516143798829	-1095.086059570313	-337.4079589843751	711.2738647460939	-751.2991333007814	-305.1068115234376	652.2214355468751	-746.7518310546876	-270.8878479003907	652.2695312500001	-752.9028930664064	-337.2065429687501	577.0729370117189	-759.9465942382814	-345.4163513183594	516.5209960937501	-763.6187744140626	-309.0680847167969	502.2816162109376	-876.9426269531252	-310.0321655273438	382.9177856445313	-773.728942871094	-382.1261596679688	305.0902404785157	-750.9293823242189	-335.5401306152344	301.0087585449219	-755.9998779296876	-319.8923950195313	253.3032226562501	-786.1179809570315	-382.3928833007813	116.6841049194336	-752.6436767578126	-358.0487976074219	125.4339218139649	-834.1170654296877	-439.3481750488282	102.2496185302735	-793.370544433594	-243.4445190429688	51.86522293090822	-819.780944824219	-235.7972717285157	52.03023529052736	-774.2842407226565	-263.7371826171876	36.57054138183594	-719.7194213867189	-235.6094207763672	947.9021606445315	-1038.783325195313	
